<svg xmlns="http://www.w3.org/2000/svg" width="76.519" height="72.522" viewBox="0 0 76.519 72.522" fill="none">
  <path d="M 15.639 -1.809 C 17.27 -3.22 21.174 -4.478 23.402 -5.027 C 23.443 -5.037 23.484 -5.048 23.524 -5.059 C 23.756 -5.119 23.981 -5.18 24.211 -5.244 C 24.5 -5.325 24.8 -5.411 25.127 -5.503 C 26.519 -5.867 28.407 -6.462 32.631 -6.767 C 33.496 -6.913 34.369 -7.034 35.254 -7.126 C 35.613 -7.164 35.972 -7.196 36.333 -7.224 C 39.83 -7.493 43.504 -7.305 47.115 -6.481 C 50.933 -5.666 55.337 -3.697 58.275 -1.615 C 59.842 -0.531 61.455 0.592 63.066 1.77 C 64.684 2.953 66.314 4.2 67.928 5.565 C 69.072 6.532 70.203 7.557 71.305 8.661 C 71.429 8.771 71.555 8.882 71.682 8.996 C 72.027 9.306 72.384 9.636 72.741 9.98 C 74.37 11.534 76.03 13.478 77.158 15.291 C 77.546 15.908 77.874 16.499 78.136 17.043 C 79.018 18.878 79.545 20.457 79.906 21.8 C 80.163 22.765 80.334 23.616 80.466 24.403 C 80.816 25.818 81.063 27.256 81.206 28.504 C 81.466 30.647 81.534 33.189 81.37 35.383 C 81.213 37.649 80.857 39.876 80.33 42.046 C 79.803 44.216 79.105 46.329 78.253 48.371 C 77.437 50.328 76.479 52.22 75.386 54.032 C 75.338 54.111 75.29 54.19 75.241 54.269 C 74.088 56.154 72.787 57.951 71.337 59.638 C 70.778 60.288 70.198 60.921 69.594 61.536 C 68.629 62.523 67.532 63.516 66.538 64.318 C 65.454 65.198 64.301 66.111 63.165 66.978 C 63.043 67.085 62.921 67.192 62.799 67.3 C 61.746 68.229 60.72 69.121 59.739 69.934 C 59.518 70.117 59.299 70.297 59.081 70.472 C 57.788 71.517 56.564 72.417 55.457 73.091 C 55.305 73.184 55.151 73.276 54.996 73.367 C 53.563 74.203 51.954 74.966 50.296 75.576 C 48.502 76.239 46.644 76.716 44.938 76.967 C 44.869 76.977 44.8 76.987 44.731 76.997 C 44.165 77.076 43.606 77.133 43.093 77.167 C 41.839 77.367 39.989 77.415 38.764 77.27 C 38.764 77.27 38.764 77.27 38.764 77.27 C 37.596 77.162 36.365 77.037 35.154 76.892 C 35.008 76.817 34.861 76.739 34.713 76.658 C 34.711 76.658 34.71 76.657 34.708 76.656 C 33.621 76.068 32.344 75.678 30.693 75.245 C 29.525 74.936 28.167 74.607 26.561 74.108 C 26.553 74.105 26.544 74.103 26.535 74.1 C 25.296 73.712 23.908 73.222 22.373 72.508 C 21.826 72.252 21.26 71.966 20.679 71.643 C 19.556 71.015 18.965 70.427 18.551 69.937 C 18.438 69.802 18.337 69.674 18.243 69.55 C 18.113 69.381 17.994 69.221 17.868 69.068 C 17.442 68.548 16.781 68.265 15.98 67.847 C 15.572 67.635 15.152 67.408 14.752 67.128 C 14.752 67.128 14.752 67.128 14.752 67.128 C 14.201 66.759 13.593 66.2 13.11 65.4 C 10.508 61.036 8.909 59.746 7.526 58.699 C 7.479 58.663 7.432 58.626 7.386 58.59 C 7.046 58.32 6.742 58.072 6.47 57.786 C 5.46 56.724 4.558 54.861 4.063 53.369 C 3.698 52.296 2.508 50.549 1.468 49.075 C 1.362 48.926 1.257 48.779 1.154 48.638 C 0.734 48.056 0.317 47.19 -0.144 46.154 C -0.62 45.082 -1.144 43.824 -1.779 42.496 C -2.502 40.981 -3.016 39.74 -3.416 38.703 C -3.906 37.424 -4.224 36.458 -4.492 35.583 C -4.63 35.13 -4.751 34.706 -4.868 34.281 C -5.24 32.929 -5.589 31.202 -5.801 29.397 C -5.903 28.535 -5.975 27.668 -6.018 26.814 C -6.084 25.498 -6.076 24.238 -6.041 23.153 C -5.561 20.016 -4.535 16.827 -2.893 13.95 C -2.159 12.656 -1.288 11.403 -0.348 10.281 C 1.225 8.388 3.344 7.236 5.191 7.013 C 7.011 6.813 8.418 7.443 9.139 8.538 C 9.87 9.638 9.916 11.112 9.646 12.576 C 9.332 14.073 8.742 15.45 7.964 16.645 C 7.493 17.362 7.08 18.131 6.748 18.913 C 5.968 20.739 5.564 22.725 5.466 24.82 C 5.434 25.503 5.434 26.181 5.463 26.883 C 5.58 29.732 6.177 32.71 7.047 35.69 C 7.11 35.907 7.175 36.124 7.241 36.342 C 8.082 39.094 9.177 41.835 10.454 44.526 C 10.462 44.542 10.47 44.558 10.478 44.574 C 10.602 44.835 10.727 45.096 10.855 45.355 C 12.291 47.436 13.839 49.419 14.889 50.824 C 15.367 51.468 15.713 52.029 16.009 52.56 C 16.251 52.995 16.448 53.393 16.632 53.759 C 16.92 54.326 17.181 54.822 17.528 55.247 C 17.717 55.478 17.989 55.794 18.312 56.157 C 19.22 57.174 20.413 58.447 21.893 59.987 C 21.893 59.987 21.893 59.987 21.893 59.987 C 22.587 60.69 22.939 61.038 23.621 61.657 C 23.71 61.738 23.801 61.82 23.895 61.905 C 24.573 62.518 25.395 63.214 26.302 63.856 C 26.414 63.935 26.525 64.013 26.638 64.09 C 27.495 64.676 28.403 65.2 29.224 65.586 C 29.99 65.947 30.677 66.189 31.167 66.262 C 31.645 66.332 32.139 66.425 32.644 66.53 C 33.816 66.775 35.05 67.087 36.239 67.373 C 36.447 67.423 36.655 67.472 36.86 67.52 C 38.02 67.792 39.086 68.02 39.983 68.127 C 39.983 68.127 39.983 68.127 39.983 68.127 C 40.379 68.171 40.667 68.143 40.866 68.068 C 41.415 67.824 42.112 67.869 43.12 67.818 C 43.173 67.815 43.229 67.811 43.284 67.808 C 44.059 67.755 45.071 67.627 46.438 67.161 C 46.576 67.113 46.713 67.066 46.846 67.02 C 48.225 66.541 49.3 66.185 50.228 65.86 C 50.423 65.791 50.613 65.723 50.797 65.653 C 51.96 65.211 52.93 64.742 54.052 63.717 C 54.185 63.595 54.318 63.473 54.451 63.352 C 55.587 62.323 56.755 61.308 57.837 60.54 C 58.016 60.413 58.191 60.295 58.361 60.185 C 58.978 59.786 59.638 59.268 60.314 58.724 C 60.662 58.444 61.02 58.153 61.377 57.868 C 61.927 57.431 62.434 57.017 62.916 56.669 C 63.552 56.213 64.229 55.885 64.814 55.584 C 64.997 55.489 65.172 55.395 65.337 55.299 C 65.465 55.152 65.591 55.006 65.716 54.857 C 66.031 54.482 66.335 54.1 66.629 53.708 C 66.665 53.595 66.699 53.475 66.734 53.35 C 66.91 52.722 67.104 51.954 67.473 51.113 C 67.643 50.725 67.823 50.364 68.012 50.018 C 68.472 49.176 68.987 48.422 69.492 47.609 C 69.901 46.948 70.303 46.249 70.638 45.443 C 70.755 45.161 70.864 44.865 70.961 44.555 C 71.217 43.739 71.404 42.779 71.54 41.828 C 71.616 41.304 71.677 40.782 71.734 40.286 C 71.831 39.446 71.912 38.681 72.05 38.09 C 72.132 37.738 72.325 37.448 72.514 37.155 C 72.515 37.154 72.516 37.153 72.517 37.152 C 72.53 37.132 72.543 37.112 72.556 37.092 C 72.583 36.44 72.588 35.791 72.57 35.144 C 72.518 33.387 72.329 31.886 71.95 30.152 C 71.938 30.119 71.926 30.086 71.914 30.053 C 71.849 29.877 71.784 29.704 71.719 29.537 C 71.335 28.552 70.935 27.793 70.515 27.323 C 70.261 27.032 69.956 26.464 69.58 25.794 C 69.273 25.246 68.919 24.633 68.521 24.032 C 68.068 23.346 67.557 22.677 67.043 22.122 C 66.9 21.967 66.757 21.821 66.616 21.685 C 66.238 21.323 66.07 20.835 65.868 20.325 C 65.681 19.85 65.465 19.356 65.047 18.971 C 64.843 18.783 64.584 18.611 64.305 18.435 C 64.3 18.431 64.295 18.428 64.29 18.425 C 64.04 18.267 63.77 18.1 63.506 17.91 C 63.26 17.732 62.83 17.21 62.224 16.547 C 61.848 16.136 61.409 15.675 60.915 15.207 C 60.828 15.148 60.741 15.088 60.654 15.028 C 59.256 14.075 57.777 13.155 56.246 12.238 C 56.203 12.228 56.16 12.218 56.117 12.209 C 55.756 12.135 55.409 12.114 55.086 12.16 C 54.826 12.197 54.575 12.281 54.315 12.365 C 53.963 12.48 53.597 12.597 53.188 12.616 C 52.87 12.631 52.572 12.527 52.438 12.35 C 52.376 12.267 52.35 12.17 52.326 12.082 C 52.299 11.981 52.274 11.891 52.202 11.847 C 52.15 11.816 52.07 11.823 51.972 11.832 C 51.814 11.845 51.61 11.862 51.397 11.732 C 51.033 11.509 50.654 11.262 50.26 10.999 C 49.858 10.729 49.464 10.475 49.1 10.254 C 48.333 9.788 47.73 9.477 47.185 9.296 C 46.587 9.096 45.647 8.57 44.684 8.15 C 44.491 8.065 44.291 7.982 44.093 7.905 C 43.603 7.713 43.111 7.554 42.657 7.455 C 42.033 7.318 41.352 7.359 40.694 7.427 C 39.905 7.509 39.146 7.629 38.482 7.494 C 38.347 7.466 38.172 7.273 37.944 7.036 C 37.783 6.868 37.595 6.676 37.378 6.505 C 37.131 6.524 36.882 6.546 36.632 6.569 C 35.994 6.63 35.351 6.707 34.702 6.799 C 34.674 6.831 34.646 6.864 34.618 6.897 C 34.618 6.897 34.617 6.898 34.617 6.899 C 33.971 7.65 33.183 8.676 31.664 8.512 C 31.276 8.472 30.988 8.295 30.725 8.137 C 30.467 7.983 30.233 7.846 29.955 7.881 C 29.639 7.922 29.316 8.153 28.967 8.409 C 28.835 8.505 28.702 8.605 28.563 8.699 C 28.18 8.958 27.76 9.179 27.259 9.186 C 27.213 9.187 27.163 9.187 27.111 9.188 C 26.618 9.198 25.883 9.222 25.063 9.054 C 23.329 9.593 21.583 10.195 19.83 10.845 C 19.548 10.949 19.265 11.055 18.982 11.163 C 16.385 12.147 13.778 13.228 11.152 14.372 C 10.348 14.722 9.526 15.086 8.719 15.445 C 7.04 16.192 5.198 16.513 3.575 16.295 C 1.951 16.076 0.71 15.328 0.094 14.191 C -0.524 13.056 -0.484 11.613 0.199 10.131 C 0.882 8.649 2.147 7.261 3.736 6.239 C 4.498 5.749 5.284 5.249 6.06 4.762 C 7.905 3.603 9.791 2.457 11.727 1.354 C 11.865 1.258 12.003 1.162 12.142 1.068 C 13.011 0.483 13.783 -0.186 14.553 -0.864 C 14.701 -0.994 14.848 -1.124 14.997 -1.254 C 15.208 -1.44 15.422 -1.626 15.639 -1.809 Z" fill="currentColor" fill-rule="nonzero"></path>
</svg>